<?xml version="1.0" encoding="utf-8"?>
<svg width="3323px" height="2186px" viewBox="0 0 3323 2186" version="1.1" xmlns:xlink="http://www.w3.org/1999/xlink" xmlns="http://www.w3.org/2000/svg">
  <desc>Created with Lunacy</desc>
  <path d="M0 2160L1089 0" transform="translate(12.5 12.5)" id="Line" fill="none" stroke="#000000" stroke-width="25" stroke-linecap="round" />
  <path d="M0 0L1115 2160" transform="translate(1101.5 12.5)" id="Line-2" fill="none" stroke="#000000" stroke-width="25" stroke-linecap="round" />
  <path d="M409 1L0 1" transform="translate(1807.5 2171.5)" id="Line-3" fill="none" stroke="#000000" stroke-width="25" stroke-linecap="round" />
  <path d="M0 0L705 1353" transform="translate(1101.5 819.5)" id="Line-4" fill="none" stroke="#000000" stroke-width="25" stroke-linecap="round" />
  <path d="M471 0L0 960" transform="translate(630.5 819.5)" id="Line-5" fill="none" stroke="#000000" stroke-width="25" stroke-linecap="round" />
  <path d="M0 1L555 1" transform="translate(631.5 1778.5)" id="Line-6" fill="none" stroke="#000000" stroke-width="25" stroke-linecap="round" />
  <path d="M0 0L204 391" transform="translate(1187.5 1781.5)" id="Line-7" fill="none" stroke="#000000" stroke-width="25" stroke-linecap="round" />
  <path d="M0 1L1783 1" transform="translate(1526.5 12.5)" id="Line-8" fill="none" stroke="#000000" stroke-width="25" stroke-linecap="round" />
  <path d="M0 0L179 361" transform="translate(1526.5 13.5)" id="Line-9" fill="none" stroke="#000000" stroke-width="25" stroke-linecap="round" />
  <path d="M0 1L563 1" transform="translate(1705.5 373.5)" id="Line-10" fill="none" stroke="#000000" stroke-width="25" stroke-linecap="round" />
  <path d="M1 0L1 1119" transform="translate(2267.5 374.5)" id="Line-11" fill="none" stroke="#000000" stroke-width="25" stroke-linecap="round" />
  <path d="M0 0L336 679" transform="translate(2268.5 1493.5)" id="Line-12" fill="none" stroke="#000000" stroke-width="25" stroke-linecap="round" />
  <path d="M1 1797L1 0" transform="translate(2603.5 375.5)" id="Line-13" fill="none" stroke="#000000" stroke-width="25" stroke-linecap="round" />
  <path d="M0 1L705 1" transform="matrix(1 0 0 -1 2604.5 376.5)" id="Line-14" fill="none" stroke="#000000" stroke-width="25" stroke-linecap="round" />
  <path d="M1 362L1 0" transform="translate(3308.5 13.5)" id="Line-15" fill="none" stroke="#000000" stroke-width="25" stroke-linecap="round" />
  <path d="M0 1L1378 1" transform="translate(12.5 2171.5)" id="Line-16" fill="none" stroke="#000000" stroke-width="25" stroke-linecap="round" />
  <path d="M406.5 0L813 818L0 818L406.5 0Z" transform="translate(701.5 0.5)" id="Triangle" fill="#000000" stroke="none" />
  <path d="M7.999 0L358.001 0Q358.197 0 358.393 0.00963514Q358.59 0.0192703 358.785 0.0385174Q358.98 0.0577644 359.175 0.0865771Q359.369 0.11539 359.561 0.153699Q359.754 0.192007 359.945 0.23972Q360.135 0.287433 360.323 0.344434Q360.511 0.401436 360.696 0.467589Q360.881 0.533742 361.062 0.608888Q361.243 0.684033 361.421 0.76799Q361.599 0.851946 361.772 0.944512Q361.945 1.03708 362.113 1.13803Q362.282 1.23898 362.445 1.34807Q362.608 1.45717 362.766 1.57414Q362.924 1.69112 363.076 1.81569Q363.227 1.94026 363.373 2.07213Q363.518 2.204 363.657 2.34285Q363.796 2.4817 363.928 2.6272Q364.06 2.7727 364.184 2.92449Q364.309 3.07628 364.426 3.234Q364.543 3.39172 364.652 3.55499Q364.761 3.71826 364.862 3.88669Q364.963 4.05512 365.055 4.2283Q365.148 4.40148 365.232 4.57899Q365.316 4.7565 365.391 4.93791Q365.466 5.11933 365.532 5.30422Q365.599 5.4891 365.656 5.67701Q365.713 5.86492 365.76 6.0554Q365.808 6.24588 365.846 6.43847Q365.885 6.63106 365.913 6.8253Q365.942 7.01954 365.962 7.21496Q365.981 7.41038 365.99 7.60651Q366 7.80264 366 7.999L366 1629Q366 1629.2 365.99 1629.39Q365.981 1629.59 365.962 1629.79Q365.942 1629.98 365.913 1630.17Q365.885 1630.37 365.846 1630.56Q365.808 1630.75 365.76 1630.94Q365.713 1631.13 365.656 1631.32Q365.599 1631.51 365.532 1631.7Q365.466 1631.88 365.391 1632.06Q365.316 1632.24 365.232 1632.42Q365.148 1632.6 365.055 1632.77Q364.963 1632.94 364.862 1633.11Q364.761 1633.28 364.652 1633.44Q364.543 1633.61 364.426 1633.77Q364.309 1633.92 364.184 1634.08Q364.06 1634.23 363.928 1634.37Q363.796 1634.52 363.657 1634.66Q363.518 1634.8 363.373 1634.93Q363.227 1635.06 363.076 1635.18Q362.924 1635.31 362.766 1635.43Q362.608 1635.54 362.445 1635.65Q362.282 1635.76 362.113 1635.86Q361.945 1635.96 361.772 1636.06Q361.599 1636.15 361.421 1636.23Q361.243 1636.32 361.062 1636.39Q360.881 1636.47 360.696 1636.53Q360.511 1636.6 360.323 1636.66Q360.135 1636.71 359.945 1636.76Q359.754 1636.81 359.561 1636.85Q359.369 1636.88 359.175 1636.91Q358.98 1636.94 358.785 1636.96Q358.59 1636.98 358.393 1636.99Q358.197 1637 358.001 1637L7.999 1637Q7.80264 1637 7.60651 1636.99Q7.41038 1636.98 7.21496 1636.96Q7.01954 1636.94 6.8253 1636.91Q6.63106 1636.88 6.43847 1636.85Q6.24588 1636.81 6.0554 1636.76Q5.86492 1636.71 5.67701 1636.66Q5.4891 1636.6 5.30422 1636.53Q5.11933 1636.47 4.93791 1636.39Q4.7565 1636.32 4.57899 1636.23Q4.40148 1636.15 4.2283 1636.06Q4.05512 1635.96 3.88669 1635.86Q3.71826 1635.76 3.55499 1635.65Q3.39172 1635.54 3.234 1635.43Q3.07628 1635.31 2.92449 1635.18Q2.7727 1635.06 2.6272 1634.93Q2.4817 1634.8 2.34285 1634.66Q2.204 1634.52 2.07213 1634.37Q1.94026 1634.23 1.81569 1634.08Q1.69112 1633.92 1.57414 1633.77Q1.45717 1633.61 1.34807 1633.44Q1.23898 1633.28 1.13803 1633.11Q1.03708 1632.94 0.944512 1632.77Q0.851946 1632.6 0.76799 1632.42Q0.684033 1632.24 0.608888 1632.06Q0.533742 1631.88 0.467589 1631.7Q0.401436 1631.51 0.344434 1631.32Q0.287433 1631.13 0.23972 1630.94Q0.192007 1630.75 0.153699 1630.56Q0.11539 1630.37 0.0865771 1630.17Q0.0577644 1629.98 0.0385174 1629.79Q0.0192703 1629.59 0.00963514 1629.39Q0 1629.2 0 1629L0 7.999Q0 7.80264 0.00963514 7.60651Q0.0192703 7.41038 0.0385174 7.21496Q0.0577644 7.01954 0.0865771 6.8253Q0.11539 6.63106 0.153699 6.43847Q0.192007 6.24588 0.23972 6.0554Q0.287433 5.86492 0.344434 5.67701Q0.401436 5.4891 0.467589 5.30422Q0.533742 5.11933 0.608888 4.93791Q0.684033 4.7565 0.76799 4.57899Q0.851946 4.40148 0.944512 4.2283Q1.03708 4.05512 1.13803 3.88669Q1.23898 3.71826 1.34807 3.55499Q1.45717 3.39172 1.57414 3.234Q1.69112 3.07628 1.81569 2.92449Q1.94026 2.7727 2.07213 2.6272Q2.204 2.4817 2.34285 2.34285Q2.4817 2.204 2.6272 2.07213Q2.7727 1.94026 2.92449 1.81569Q3.07628 1.69112 3.234 1.57414Q3.39172 1.45717 3.55499 1.34807Q3.71826 1.23898 3.88669 1.13803Q4.05512 1.03708 4.2283 0.944512Q4.40148 0.851946 4.57899 0.76799Q4.7565 0.684033 4.93791 0.608888Q5.11933 0.533742 5.30422 0.467589Q5.4891 0.401436 5.67701 0.344434Q5.86492 0.287433 6.0554 0.23972Q6.24588 0.192007 6.43847 0.153699Q6.63106 0.11539 6.8253 0.0865771Q7.01954 0.0577644 7.21496 0.0385174Q7.41038 0.0192703 7.60651 0.00963514Q7.80264 0 7.999 0L7.999 0Z" transform="matrix(-0.8910066 0.4539905 0.4539905 0.8910066 1375.708 542.5215)" id="Rectangle" fill="#000000" stroke="none" />
  <path d="M209 0L418 394L0 394L209 0Z" transform="translate(1804.5 1779.5)" id="Triangle-2" fill="#000000" stroke="none" />
  <path d="M7.999 0L358.001 0Q358.197 0 358.393 0.00963514Q358.59 0.0192703 358.785 0.0385174Q358.98 0.0577644 359.175 0.0865771Q359.369 0.11539 359.561 0.153699Q359.754 0.192007 359.945 0.23972Q360.135 0.287433 360.323 0.344434Q360.511 0.401436 360.696 0.467589Q360.881 0.533742 361.062 0.608888Q361.243 0.684033 361.421 0.76799Q361.599 0.851946 361.772 0.944512Q361.945 1.03708 362.113 1.13803Q362.282 1.23898 362.445 1.34807Q362.608 1.45717 362.766 1.57414Q362.924 1.69112 363.076 1.81569Q363.227 1.94026 363.373 2.07213Q363.518 2.204 363.657 2.34285Q363.796 2.4817 363.928 2.6272Q364.06 2.7727 364.184 2.92449Q364.309 3.07628 364.426 3.234Q364.543 3.39172 364.652 3.55499Q364.761 3.71826 364.862 3.88669Q364.963 4.05512 365.055 4.2283Q365.148 4.40148 365.232 4.57899Q365.316 4.7565 365.391 4.93791Q365.466 5.11933 365.532 5.30422Q365.599 5.4891 365.656 5.67701Q365.713 5.86492 365.76 6.0554Q365.808 6.24588 365.846 6.43847Q365.885 6.63106 365.913 6.8253Q365.942 7.01954 365.962 7.21496Q365.981 7.41038 365.99 7.60651Q366 7.80264 366 7.999L366 1629Q366 1629.2 365.99 1629.39Q365.981 1629.59 365.962 1629.79Q365.942 1629.98 365.913 1630.17Q365.885 1630.37 365.846 1630.56Q365.808 1630.75 365.76 1630.94Q365.713 1631.13 365.656 1631.32Q365.599 1631.51 365.532 1631.7Q365.466 1631.88 365.391 1632.06Q365.316 1632.24 365.232 1632.42Q365.148 1632.6 365.055 1632.77Q364.963 1632.94 364.862 1633.11Q364.761 1633.28 364.652 1633.44Q364.543 1633.61 364.426 1633.77Q364.309 1633.92 364.184 1634.08Q364.06 1634.23 363.928 1634.37Q363.796 1634.52 363.657 1634.66Q363.518 1634.8 363.373 1634.93Q363.227 1635.06 363.076 1635.18Q362.924 1635.31 362.766 1635.43Q362.608 1635.54 362.445 1635.65Q362.282 1635.76 362.113 1635.86Q361.945 1635.96 361.772 1636.06Q361.599 1636.15 361.421 1636.23Q361.243 1636.32 361.062 1636.39Q360.881 1636.47 360.696 1636.53Q360.511 1636.6 360.323 1636.66Q360.135 1636.71 359.945 1636.76Q359.754 1636.81 359.561 1636.85Q359.369 1636.88 359.175 1636.91Q358.98 1636.94 358.785 1636.96Q358.59 1636.98 358.393 1636.99Q358.197 1637 358.001 1637L7.999 1637Q7.80264 1637 7.60651 1636.99Q7.41038 1636.98 7.21496 1636.96Q7.01954 1636.94 6.8253 1636.91Q6.63106 1636.88 6.43847 1636.85Q6.24588 1636.81 6.0554 1636.76Q5.86492 1636.71 5.67701 1636.66Q5.4891 1636.6 5.30422 1636.53Q5.11933 1636.47 4.93791 1636.39Q4.7565 1636.32 4.57899 1636.23Q4.40148 1636.15 4.2283 1636.06Q4.05512 1635.96 3.88669 1635.86Q3.71826 1635.76 3.55499 1635.65Q3.39172 1635.54 3.234 1635.43Q3.07628 1635.31 2.92449 1635.18Q2.7727 1635.06 2.6272 1634.93Q2.4817 1634.8 2.34285 1634.66Q2.204 1634.52 2.07213 1634.37Q1.94026 1634.23 1.81569 1634.08Q1.69112 1633.92 1.57414 1633.77Q1.45717 1633.61 1.34807 1633.44Q1.23898 1633.28 1.13803 1633.11Q1.03708 1632.94 0.944512 1632.77Q0.851946 1632.6 0.76799 1632.42Q0.684033 1632.24 0.608888 1632.06Q0.533742 1631.88 0.467589 1631.7Q0.401436 1631.51 0.344434 1631.32Q0.287433 1631.13 0.23972 1630.94Q0.192007 1630.75 0.153699 1630.56Q0.11539 1630.37 0.0865771 1630.17Q0.0577644 1629.98 0.0385174 1629.79Q0.0192703 1629.59 0.00963514 1629.39Q0 1629.2 0 1629L0 7.999Q0 7.80264 0.00963514 7.60651Q0.0192703 7.41038 0.0385174 7.21496Q0.0577644 7.01954 0.0865771 6.8253Q0.11539 6.63106 0.153699 6.43847Q0.192007 6.24588 0.23972 6.0554Q0.287433 5.86492 0.344434 5.67701Q0.401436 5.4891 0.467589 5.30422Q0.533742 5.11933 0.608888 4.93791Q0.684033 4.7565 0.76799 4.57899Q0.851946 4.40148 0.944512 4.2283Q1.03708 4.05512 1.13803 3.88669Q1.23898 3.71826 1.34807 3.55499Q1.45717 3.39172 1.57414 3.234Q1.69112 3.07628 1.81569 2.92449Q1.94026 2.7727 2.07213 2.6272Q2.204 2.4817 2.34285 2.34285Q2.4817 2.204 2.6272 2.07213Q2.7727 1.94026 2.92449 1.81569Q3.07628 1.69112 3.234 1.57414Q3.39172 1.45717 3.55499 1.34807Q3.71826 1.23898 3.88669 1.13803Q4.05512 1.03708 4.2283 0.944512Q4.40148 0.851946 4.57899 0.76799Q4.7565 0.684033 4.93791 0.608888Q5.11933 0.533742 5.30422 0.467589Q5.4891 0.401436 5.67701 0.344434Q5.86492 0.287433 6.0554 0.23972Q6.24588 0.192007 6.43847 0.153699Q6.63106 0.11539 6.8253 0.0865771Q7.01954 0.0577644 7.21496 0.0385174Q7.41038 0.0192703 7.60651 0.00963514Q7.80264 0 7.999 0L7.999 0Z" transform="matrix(-0.8910066 -0.4539905 -0.4539905 0.8910066 1170.682 709.9219)" id="Rectangle" fill="#000000" stroke="none" />
  <path d="M209 0L418 394L0 394L209 0Z" transform="translate(19.5 1774.5)" id="Triangle-2" fill="#000000" stroke="none" />
  <path d="M209 0L418 394L0 394L209 0Z" transform="translate(962.5 1776.5)" id="Triangle-2" fill="#000000" stroke="none" />
  <path d="M7.999 0L388.001 0Q388.197 0 388.394 0.00963514Q388.59 0.0192703 388.785 0.0385174Q388.98 0.0577644 389.175 0.0865771Q389.369 0.11539 389.562 0.153699Q389.754 0.192007 389.945 0.23972Q390.135 0.287433 390.323 0.344434Q390.511 0.401436 390.696 0.467589Q390.881 0.533742 391.062 0.608888Q391.243 0.684033 391.421 0.76799Q391.599 0.851946 391.772 0.944512Q391.945 1.03708 392.113 1.13803Q392.282 1.23898 392.445 1.34807Q392.608 1.45717 392.766 1.57414Q392.924 1.69112 393.076 1.81569Q393.227 1.94026 393.373 2.07213Q393.518 2.204 393.657 2.34285Q393.796 2.4817 393.928 2.6272Q394.06 2.7727 394.184 2.92449Q394.309 3.07628 394.426 3.234Q394.543 3.39172 394.652 3.55499Q394.761 3.71826 394.862 3.88669Q394.963 4.05512 395.056 4.2283Q395.148 4.40148 395.232 4.57899Q395.316 4.7565 395.391 4.93791Q395.466 5.11933 395.532 5.30422Q395.599 5.4891 395.656 5.67701Q395.713 5.86492 395.76 6.0554Q395.808 6.24588 395.846 6.43847Q395.885 6.63106 395.913 6.8253Q395.942 7.01954 395.962 7.21496Q395.981 7.41038 395.99 7.60651Q396 7.80264 396 7.999L396 909.001Q396 909.197 395.99 909.393Q395.981 909.59 395.962 909.785Q395.942 909.98 395.913 910.175Q395.885 910.369 395.846 910.561Q395.808 910.754 395.76 910.945Q395.713 911.135 395.656 911.323Q395.599 911.511 395.532 911.696Q395.466 911.881 395.391 912.062Q395.316 912.243 395.232 912.421Q395.148 912.598 395.056 912.772Q394.963 912.945 394.862 913.113Q394.761 913.282 394.652 913.445Q394.543 913.608 394.426 913.766Q394.309 913.924 394.184 914.075Q394.06 914.227 393.928 914.373Q393.796 914.518 393.657 914.657Q393.518 914.796 393.373 914.928Q393.227 915.06 393.076 915.184Q392.924 915.309 392.766 915.426Q392.608 915.543 392.445 915.652Q392.282 915.761 392.113 915.862Q391.945 915.963 391.772 916.055Q391.599 916.148 391.421 916.232Q391.243 916.316 391.062 916.391Q390.881 916.466 390.696 916.532Q390.511 916.599 390.323 916.656Q390.135 916.713 389.945 916.76Q389.754 916.808 389.562 916.846Q389.369 916.885 389.175 916.913Q388.98 916.942 388.785 916.962Q388.59 916.981 388.394 916.99Q388.197 917 388.001 917L7.999 917Q7.80264 917 7.60651 916.99Q7.41038 916.981 7.21496 916.962Q7.01954 916.942 6.8253 916.913Q6.63106 916.885 6.43847 916.846Q6.24588 916.808 6.0554 916.76Q5.86492 916.713 5.67701 916.656Q5.4891 916.599 5.30422 916.532Q5.11933 916.466 4.93791 916.391Q4.7565 916.316 4.57899 916.232Q4.40148 916.148 4.2283 916.055Q4.05512 915.963 3.88669 915.862Q3.71826 915.761 3.55499 915.652Q3.39172 915.543 3.234 915.426Q3.07628 915.309 2.92449 915.184Q2.7727 915.06 2.6272 914.928Q2.4817 914.796 2.34285 914.657Q2.204 914.518 2.07213 914.373Q1.94026 914.227 1.81569 914.075Q1.69112 913.924 1.57414 913.766Q1.45717 913.608 1.34807 913.445Q1.23898 913.282 1.13803 913.113Q1.03708 912.945 0.944512 912.772Q0.851946 912.598 0.76799 912.421Q0.684033 912.243 0.608888 912.062Q0.533742 911.881 0.467589 911.696Q0.401436 911.511 0.344434 911.323Q0.287433 911.135 0.23972 910.944Q0.192007 910.754 0.153699 910.561Q0.11539 910.369 0.0865771 910.175Q0.0577644 909.98 0.0385174 909.785Q0.0192703 909.59 0.00963514 909.393Q0 909.197 0 909.001L0 7.999Q0 7.80264 0.00963514 7.60651Q0.0192703 7.41038 0.0385174 7.21496Q0.0577644 7.01954 0.0865771 6.8253Q0.11539 6.63106 0.153699 6.43847Q0.192007 6.24588 0.23972 6.0554Q0.287433 5.86492 0.344434 5.67701Q0.401436 5.4891 0.467589 5.30422Q0.533742 5.11933 0.608888 4.93791Q0.684033 4.7565 0.76799 4.57899Q0.851946 4.40148 0.944512 4.2283Q1.03708 4.05512 1.13803 3.88669Q1.23898 3.71826 1.34807 3.55499Q1.45717 3.39172 1.57414 3.234Q1.69112 3.07628 1.81569 2.92449Q1.94026 2.7727 2.07213 2.6272Q2.204 2.4817 2.34285 2.34285Q2.4817 2.204 2.6272 2.07213Q2.7727 1.94026 2.92449 1.81569Q3.07628 1.69112 3.234 1.57414Q3.39172 1.45717 3.55499 1.34807Q3.71826 1.23898 3.88669 1.13803Q4.05512 1.03708 4.2283 0.944512Q4.40148 0.851946 4.57899 0.76799Q4.7565 0.684033 4.93791 0.608888Q5.11933 0.533742 5.30422 0.467589Q5.4891 0.401436 5.67701 0.344434Q5.86492 0.287433 6.0554 0.23972Q6.24588 0.192007 6.43847 0.153699Q6.63106 0.11539 6.8253 0.0865771Q7.01954 0.0577644 7.21496 0.0385174Q7.41038 0.0192703 7.60651 0.00963514Q7.80264 0 7.999 0L7.999 0Z" transform="matrix(4.371139E-08 -1 -1 -4.371139E-08 1187.5 2174.5)" id="Rectangle" fill="#000000" stroke="none" />
  <path d="M7.999 0L328.001 0Q328.197 0 328.393 0.00963514Q328.59 0.0192703 328.785 0.0385174Q328.98 0.0577644 329.175 0.0865771Q329.369 0.11539 329.561 0.153699Q329.754 0.192007 329.945 0.23972Q330.135 0.287433 330.323 0.344434Q330.511 0.401436 330.696 0.467589Q330.881 0.533742 331.062 0.608888Q331.243 0.684033 331.421 0.76799Q331.598 0.851946 331.772 0.944512Q331.945 1.03708 332.113 1.13803Q332.282 1.23898 332.445 1.34807Q332.608 1.45717 332.766 1.57414Q332.924 1.69112 333.076 1.81569Q333.227 1.94026 333.373 2.07213Q333.518 2.204 333.657 2.34285Q333.796 2.4817 333.928 2.6272Q334.06 2.7727 334.184 2.92449Q334.309 3.07628 334.426 3.234Q334.543 3.39172 334.652 3.55499Q334.761 3.71826 334.862 3.88669Q334.963 4.05512 335.055 4.2283Q335.148 4.40148 335.232 4.57899Q335.316 4.7565 335.391 4.93791Q335.466 5.11933 335.532 5.30422Q335.599 5.4891 335.656 5.67701Q335.713 5.86492 335.76 6.0554Q335.808 6.24588 335.846 6.43847Q335.885 6.63106 335.913 6.8253Q335.942 7.01954 335.961 7.21496Q335.981 7.41038 335.99 7.60651Q336 7.80264 336 7.999L336 1489Q336 1489.2 335.99 1489.39Q335.981 1489.59 335.961 1489.79Q335.942 1489.98 335.913 1490.17Q335.885 1490.37 335.846 1490.56Q335.808 1490.75 335.76 1490.94Q335.713 1491.14 335.656 1491.32Q335.599 1491.51 335.532 1491.7Q335.466 1491.88 335.391 1492.06Q335.316 1492.24 335.232 1492.42Q335.148 1492.6 335.055 1492.77Q334.963 1492.94 334.862 1493.11Q334.761 1493.28 334.652 1493.44Q334.543 1493.61 334.426 1493.77Q334.309 1493.92 334.184 1494.08Q334.06 1494.23 333.928 1494.37Q333.796 1494.52 333.657 1494.66Q333.518 1494.8 333.373 1494.93Q333.227 1495.06 333.076 1495.18Q332.924 1495.31 332.766 1495.43Q332.608 1495.54 332.445 1495.65Q332.282 1495.76 332.113 1495.86Q331.945 1495.96 331.772 1496.06Q331.598 1496.15 331.421 1496.23Q331.243 1496.32 331.062 1496.39Q330.881 1496.47 330.696 1496.53Q330.511 1496.6 330.323 1496.66Q330.135 1496.71 329.945 1496.76Q329.754 1496.81 329.561 1496.85Q329.369 1496.88 329.175 1496.91Q328.98 1496.94 328.785 1496.96Q328.59 1496.98 328.393 1496.99Q328.197 1497 328.001 1497L7.999 1497Q7.80264 1497 7.60651 1496.99Q7.41038 1496.98 7.21496 1496.96Q7.01954 1496.94 6.8253 1496.91Q6.63106 1496.88 6.43847 1496.85Q6.24588 1496.81 6.0554 1496.76Q5.86492 1496.71 5.67701 1496.66Q5.4891 1496.6 5.30422 1496.53Q5.11933 1496.47 4.93791 1496.39Q4.7565 1496.32 4.57899 1496.23Q4.40148 1496.15 4.2283 1496.06Q4.05512 1495.96 3.88669 1495.86Q3.71826 1495.76 3.55499 1495.65Q3.39172 1495.54 3.234 1495.43Q3.07628 1495.31 2.92449 1495.18Q2.7727 1495.06 2.6272 1494.93Q2.4817 1494.8 2.34285 1494.66Q2.204 1494.52 2.07213 1494.37Q1.94026 1494.23 1.81569 1494.08Q1.69112 1493.92 1.57414 1493.77Q1.45717 1493.61 1.34807 1493.44Q1.23898 1493.28 1.13803 1493.11Q1.03708 1492.94 0.944512 1492.77Q0.851946 1492.6 0.76799 1492.42Q0.684033 1492.24 0.608888 1492.06Q0.533742 1491.88 0.467589 1491.7Q0.401436 1491.51 0.344434 1491.32Q0.287433 1491.14 0.23972 1490.94Q0.192007 1490.75 0.153699 1490.56Q0.11539 1490.37 0.0865771 1490.17Q0.0577644 1489.98 0.0385174 1489.79Q0.0192703 1489.59 0.00963514 1489.39Q0 1489.2 0 1489L0 7.999Q0 7.80264 0.00963514 7.60651Q0.0192703 7.41038 0.0385174 7.21496Q0.0577644 7.01954 0.0865771 6.8253Q0.11539 6.63106 0.153699 6.43847Q0.192007 6.24588 0.23972 6.0554Q0.287433 5.86492 0.344434 5.67701Q0.401436 5.4891 0.467589 5.30422Q0.533742 5.11933 0.608888 4.93791Q0.684033 4.7565 0.76799 4.57899Q0.851946 4.40148 0.944512 4.2283Q1.03708 4.05512 1.13803 3.88669Q1.23898 3.71826 1.34807 3.55499Q1.45717 3.39172 1.57414 3.234Q1.69112 3.07628 1.81569 2.92449Q1.94026 2.7727 2.07213 2.6272Q2.204 2.4817 2.34285 2.34285Q2.4817 2.204 2.6272 2.07213Q2.7727 1.94026 2.92449 1.81569Q3.07628 1.69112 3.234 1.57414Q3.39172 1.45717 3.55499 1.34807Q3.71826 1.23898 3.88669 1.13803Q4.05512 1.03708 4.2283 0.944512Q4.40148 0.851946 4.57899 0.76799Q4.7565 0.684033 4.93791 0.608888Q5.11933 0.533742 5.30422 0.467589Q5.4891 0.401436 5.67701 0.344434Q5.86492 0.287433 6.0554 0.23972Q6.24588 0.192007 6.43847 0.153699Q6.63106 0.11539 6.8253 0.0865771Q7.01954 0.0577644 7.21496 0.0385174Q7.41038 0.0192703 7.60651 0.00963514Q7.80264 0 7.999 0Z" transform="matrix(-1 0 0 1 2604.5 9.5)" id="Rectangle" fill="#000000" stroke="none" />
  <path d="M7.999 0L358.001 0Q358.197 0 358.393 0.00963514Q358.59 0.0192703 358.785 0.0385174Q358.98 0.0577644 359.175 0.0865771Q359.369 0.11539 359.561 0.153699Q359.754 0.192007 359.945 0.23972Q360.135 0.287433 360.323 0.344434Q360.511 0.401436 360.696 0.467589Q360.881 0.533742 361.062 0.608888Q361.243 0.684033 361.421 0.76799Q361.599 0.851946 361.772 0.944512Q361.945 1.03708 362.113 1.13803Q362.282 1.23898 362.445 1.34807Q362.608 1.45717 362.766 1.57414Q362.924 1.69112 363.076 1.81569Q363.227 1.94026 363.373 2.07213Q363.518 2.204 363.657 2.34285Q363.796 2.4817 363.928 2.6272Q364.06 2.7727 364.184 2.92449Q364.309 3.07628 364.426 3.234Q364.543 3.39172 364.652 3.55499Q364.761 3.71826 364.862 3.88669Q364.963 4.05512 365.055 4.2283Q365.148 4.40148 365.232 4.57899Q365.316 4.7565 365.391 4.93791Q365.466 5.11933 365.532 5.30422Q365.599 5.4891 365.656 5.67701Q365.713 5.86492 365.76 6.0554Q365.808 6.24588 365.846 6.43847Q365.885 6.63106 365.913 6.8253Q365.942 7.01954 365.962 7.21496Q365.981 7.41038 365.99 7.60651Q366 7.80264 366 7.999L366 1592Q366 1592.2 365.99 1592.39Q365.981 1592.59 365.962 1592.79Q365.942 1592.98 365.913 1593.17Q365.885 1593.37 365.846 1593.56Q365.808 1593.75 365.76 1593.94Q365.713 1594.13 365.656 1594.32Q365.599 1594.51 365.532 1594.7Q365.466 1594.88 365.391 1595.06Q365.316 1595.24 365.232 1595.42Q365.148 1595.6 365.055 1595.77Q364.963 1595.94 364.862 1596.11Q364.761 1596.28 364.652 1596.44Q364.543 1596.61 364.426 1596.77Q364.309 1596.92 364.184 1597.08Q364.06 1597.23 363.928 1597.37Q363.796 1597.52 363.657 1597.66Q363.518 1597.8 363.373 1597.93Q363.227 1598.06 363.076 1598.18Q362.924 1598.31 362.766 1598.43Q362.608 1598.54 362.445 1598.65Q362.282 1598.76 362.113 1598.86Q361.945 1598.96 361.772 1599.06Q361.599 1599.15 361.421 1599.23Q361.243 1599.32 361.062 1599.39Q360.881 1599.47 360.696 1599.53Q360.511 1599.6 360.323 1599.66Q360.135 1599.71 359.945 1599.76Q359.754 1599.81 359.561 1599.85Q359.369 1599.88 359.175 1599.91Q358.98 1599.94 358.785 1599.96Q358.59 1599.98 358.393 1599.99Q358.197 1600 358.001 1600L7.999 1600Q7.80264 1600 7.60651 1599.99Q7.41038 1599.98 7.21496 1599.96Q7.01954 1599.94 6.8253 1599.91Q6.63106 1599.88 6.43847 1599.85Q6.24588 1599.81 6.0554 1599.76Q5.86492 1599.71 5.67701 1599.66Q5.4891 1599.6 5.30422 1599.53Q5.11933 1599.47 4.93791 1599.39Q4.7565 1599.32 4.57899 1599.23Q4.40148 1599.15 4.2283 1599.06Q4.05512 1598.96 3.88669 1598.86Q3.71826 1598.76 3.55499 1598.65Q3.39172 1598.54 3.234 1598.43Q3.07628 1598.31 2.92449 1598.18Q2.7727 1598.06 2.6272 1597.93Q2.4817 1597.8 2.34285 1597.66Q2.204 1597.52 2.07213 1597.37Q1.94026 1597.23 1.81569 1597.08Q1.69112 1596.92 1.57414 1596.77Q1.45717 1596.61 1.34807 1596.44Q1.23898 1596.28 1.13803 1596.11Q1.03708 1595.94 0.944512 1595.77Q0.851946 1595.6 0.76799 1595.42Q0.684033 1595.24 0.608888 1595.06Q0.533742 1594.88 0.467589 1594.7Q0.401436 1594.51 0.344434 1594.32Q0.287433 1594.13 0.23972 1593.94Q0.192007 1593.75 0.153699 1593.56Q0.11539 1593.37 0.0865771 1593.17Q0.0577644 1592.98 0.0385174 1592.79Q0.0192703 1592.59 0.00963514 1592.39Q0 1592.2 0 1592L0 7.999Q0 7.80264 0.00963514 7.60651Q0.0192703 7.41038 0.0385174 7.21496Q0.0577644 7.01954 0.0865771 6.8253Q0.11539 6.63106 0.153699 6.43847Q0.192007 6.24588 0.23972 6.0554Q0.287433 5.86492 0.344434 5.67701Q0.401436 5.4891 0.467589 5.30422Q0.533742 5.11933 0.608888 4.93791Q0.684033 4.7565 0.76799 4.57899Q0.851946 4.40148 0.944512 4.2283Q1.03708 4.05512 1.13803 3.88669Q1.23898 3.71826 1.34807 3.55499Q1.45717 3.39172 1.57414 3.234Q1.69112 3.07628 1.81569 2.92449Q1.94026 2.7727 2.07213 2.6272Q2.204 2.4817 2.34285 2.34285Q2.4817 2.204 2.6272 2.07213Q2.7727 1.94026 2.92449 1.81569Q3.07628 1.69112 3.234 1.57414Q3.39172 1.45717 3.55499 1.34807Q3.71826 1.23898 3.88669 1.13803Q4.05512 1.03708 4.2283 0.944512Q4.40148 0.851946 4.57899 0.76799Q4.7565 0.684033 4.93791 0.608888Q5.11933 0.533742 5.30422 0.467589Q5.4891 0.401436 5.67701 0.344434Q5.86492 0.287433 6.0554 0.23972Q6.24588 0.192007 6.43847 0.153699Q6.63106 0.11539 6.8253 0.0865771Q7.01954 0.0577644 7.21496 0.0385174Q7.41038 0.0192703 7.60651 0.00963514Q7.80264 0 7.999 0L7.999 0Z" transform="matrix(4.371139E-08 -1 -1 -4.371139E-08 3298.5 376.4995)" id="Rectangle" fill="#000000" stroke="none" />
  <path d="M173.5 0L347 349L0 349L173.5 0Z" transform="matrix(-1 -8.742278E-08 8.742278E-08 -1 2609.5 1820.5)" id="Triangle-2" fill="#000000" stroke="none" />
  <path d="M281 0L562 217L0 217L281 0Z" transform="matrix(-4.371139E-08 -1 1 -4.371139E-08 2391.5 2047.5)" id="Triangle-2" fill="#000000" stroke="none" />
  <path d="M78 0L156 394L0 394L78 0Z" transform="matrix(-0.9659258 0.2588191 -0.2588191 -0.9659258 2679.184 2131.124)" id="Triangle-2" fill="#000000" stroke="none" />
  <path d="M167.5 0L335 354L0 354L167.5 0Z" transform="matrix(-1 -8.742278E-08 8.742278E-08 -1 1860.5 363.5)" id="Triangle-2" fill="#000000" stroke="none" />
</svg>